<?xml version="1.0" encoding="UTF-8" standalone="no"?>
<!-- Created with Inkscape (http://www.inkscape.org/) -->

<svg
   width="103.32727mm"
   height="28.439255mm"
   viewBox="0 0 103.32727 28.439255"
   version="1.1"
   id="svg1"
   xmlns="http://www.w3.org/2000/svg"
   xmlns:svg="http://www.w3.org/2000/svg">
  <defs
     id="defs1" />
  <g
     id="layer1"
     transform="translate(-54.101333,-37.99619)">
    <path
       d="m 62.193013,37.99999 c 0.64184,0.06818 0.82322,-0.0038 0.92532,-0.0038 l 0.22333,0.0038 c 1.17418,0.255255 2.38239,1.012511 3.62461,2.271769 v 0.331831 c -0.28929,0.969969 -0.67217,1.540038 -1.14863,1.710208 h -0.45947 c -0.34034,-0.272273 -0.68068,-0.408408 -1.02102,-0.408408 h -0.71471 v -0.153153 c 0.32332,-0.476476 0.51901,-0.714713 0.58709,-0.714713 0,-0.765765 -0.81682,-1.540037 -2.45045,-2.322819 -0.17018,0.102097 -0.36586,0.153153 -0.58709,0.153153 l -0.1021,-0.306307 c 0.57858,-0.374374 0.95296,-0.561561 1.12312,-0.561561 z m 9.24022,4.058553 c 0.4935,0.629628 0.74025,1.046544 0.74025,1.250748 0,0.85085 -0.77428,1.523021 -2.32283,2.016513 -0.96996,0.289289 -1.45494,0.782781 -1.45494,1.480478 -0.71471,1.667665 -2.06756,3.012007 -4.05856,4.033026 l -0.12769,0.306304 c -0.0681,0 -0.10209,-0.0425 -0.10209,-0.127621 -0.44244,0 -0.94445,0.187191 -1.506,0.561561 h -0.84234 c -0.73173,0 -1.55706,-0.680679 -2.47598,-2.042038 0.034,-0.204205 0.12769,-0.306306 0.28078,-0.306306 0.32333,0.510509 0.62963,0.765764 0.91892,0.765764 1.07207,-0.578577 1.88038,-1.208206 2.42493,-1.888885 l -0.12769,-0.306307 0.30631,-0.127622 c 0,0.204205 0.0851,0.306307 0.25525,0.306307 2.14415,-2.025021 3.64163,-3.037533 4.49249,-3.037533 0.17017,0.102098 0.35735,0.153154 0.56156,0.153154 0.96997,-1.02102 1.45495,-1.803802 1.45495,-2.348345 -2.14415,0 -4.45845,0.918917 -6.94292,2.756751 -3.42042,2.99499 -5.38588,4.492485 -5.8964,4.492485 h -0.15314 c -0.85086,0 -1.76978,-0.672171 -2.75676,-2.016512 v -0.17869 h 0.12769 c 0.5105,0.289289 0.9104,0.433934 1.19969,0.433934 1.22522,0 3.86285,-1.35285 7.9129,-4.058552 2.46746,-1.412409 5.16465,-2.118614 8.09157,-2.118614 z m -5.48797,4.466958 v 0.127622 c 0.39139,0.306306 0.58709,0.833834 0.58709,1.582581 0.86787,-0.782783 1.30179,-1.454953 1.30179,-2.016513 h -0.17867 l -0.84234,0.587085 -0.15316,-0.28078 c 0.78279,-0.629628 1.17417,-0.969968 1.17417,-1.02102 v -0.178677 c -0.39138,0 -1.02101,0.399898 -1.88888,1.199697 z m -2.16967,2.144142 c 0.22122,0.612611 0.33183,0.995493 0.33183,1.148646 h 0.1021 c 0.88488,-0.561561 1.32732,-1.463461 1.32732,-2.705701 l -0.30631,-0.153153 c -0.96996,0.85085 -1.45495,1.420919 -1.45495,1.710208 z m 7.09609,0.153151 v 0.408408 c -0.64664,0.765765 -1.94844,1.591089 -3.90541,2.47597 0,0.13614 -0.24675,0.37437 -0.74023,0.71472 -0.18719,0 -0.28078,-0.0851 -0.28078,-0.25526 l 2.19519,-2.016512 v -0.153153 c -2.58658,1.412415 -5.38588,3.437435 -8.39788,6.075065 -0.74875,0.25525 -1.28478,0.38288 -1.6081,0.38288 -1.92292,-0.34034 -2.88438,-0.62112 -2.88438,-0.84234 v -0.17868 l 1.17416,0.33183 c 1.24224,0 4.13513,-1.64213 8.67868,-4.926414 2.4164,-1.344343 4.05003,-2.016514 4.90088,-2.016514 z m -7.78528,0.561561 -0.48497,1.454953 v 0.178678 c 0.68067,-0.306305 1.02101,-0.595594 1.02101,-0.867866 -0.18719,-0.34034 -0.28078,-0.595595 -0.28078,-0.765765 z m 5.05405,2.884377 h 0.68919 c 0.22122,0.034 0.33183,0.13614 0.33183,0.30631 0,0.64665 -1.01251,1.81231 -3.03753,3.49699 0.11912,0 0.29779,0.18719 0.53603,0.56156 -1.42942,1.735733 -2.14413,2.688683 -2.14413,2.858863 0.18719,0.34034 0.28078,0.59558 0.28078,0.76576 0,0.15316 -0.0935,1.01251 -0.28078,2.57807 h 0.28078 c 0.71471,-0.54453 1.82932,-1.79528 3.34383,-3.75224 0.68068,-0.78279 1.09759,-1.174183 1.25075,-1.174183 1.5996,0 2.36624,1.064113 3.65953,4.042093 -1.73574,0.68068 -2.78316,1.82877 -4.50188,2.59453 v -0.15314 c 1.75276,-1.48049 2.62914,-2.82483 2.62914,-4.03303 0,-0.68068 -0.63814,-1.31031 -1.91441,-1.88888 -1.25926,1.39539 -2.46747,3.5225 -3.62463,6.38136 -0.83384,1.05505 -1.31031,1.58258 -1.42942,1.58258 h -0.28078 c -0.15316,0 -0.34885,-0.18718 -0.58709,-0.56155 v -1.88889 l -0.43393,-0.58709 c 0.52752,-0.74875 0.86786,-1.71872 1.02102,-2.9099 h -0.15316 c -0.71471,0.74874 -1.67617,2.68868 -2.88438,5.81981 l -0.30631,0.12769 h -1.30179 c -0.15315,0 -0.22972,-0.0851 -0.22972,-0.25525 v -0.17868 c 0.017,-0.30631 0.39142,-0.74024 1.12311,-1.3018 0.76577,-1.61661 2.24624,-4.02452 4.44143,-7.223713 h -0.10209 c -0.11912,0 -0.45947,0.33183 -1.02102,0.995493 h -0.30631 c 0,-0.25525 -0.42542,-0.587093 -1.27627,-0.995493 -0.68069,-0.30631 -1.15716,-0.73173 -1.42943,-1.27628 l 0.28078,-0.12762 0.4084,0.25525 c 0.76577,0 2.59509,-1.15715 5.48798,-3.47146 0.69771,-0.17017 1.19119,-0.36587 1.48048,-0.58709 z m -4.51801,5.36035 c 1.66766,-1.71871 2.5015,-2.86736 2.5015,-3.44594 -1.66766,1.12312 -2.5015,2.27177 -2.5015,3.44594 z m 26.92939,-18.199664 c 3.36937,1.58258 5.05405,2.688685 5.05405,3.318312 0,0.323323 -0.17868,0.484984 -0.53604,0.484984 -2.008,-0.06806 -3.012,-0.612609 -3.012,-1.63363 -0.51051,-0.714713 -1.14865,-1.386884 -1.91441,-2.016513 0.20421,-0.102098 0.34034,-0.153153 0.4084,-0.153153 z m 7.40239,3.318312 h 0.15316 c 2.586577,0.578578 3.879867,1.548545 3.879867,2.909905 v 0.127622 c 0,0.153153 -0.77427,0.34034 -2.322807,0.561561 -2.04205,0.629628 -3.33534,1.174171 -3.87989,1.633631 l -0.17867,-0.306307 c 1.97397,-1.429427 3.14815,-2.680175 3.52252,-3.752245 -0.17018,-0.459459 -0.46798,-0.689188 -0.8934,-0.689188 -2.60359,0.629629 -5.53902,2.212209 -8.80629,4.74774 -2.1101,1.565563 -3.75224,2.518514 -4.92642,2.858854 0,-0.170169 -0.81682,-0.935934 -2.45045,-2.297293 l 0.15316,-0.255255 1.45495,0.536034 c 1.54855,0 4.72221,-1.497495 9.521,-4.492484 1.25926,-0.476475 2.85035,-1.004003 4.77327,-1.58258 z m -1.02102,5.054045 c 0.1872,0.03403 0.28079,0.136134 0.28079,0.306306 -0.86787,0.680679 -2.07607,1.437936 -3.62462,2.271768 0.37437,1.361363 0.62111,2.042043 0.74024,2.042043 1.51451,-0.93594 2.38237,-1.403906 2.60359,-1.403906 l 0.28079,0.382886 c -0.40841,0.37437 -1.36987,1.1061 -2.88438,2.19519 0.10209,0.83383 0.15314,1.31881 0.15314,1.45495 0,0.2042 -0.0511,0.73173 -0.15314,1.58258 0,0.0851 0.0511,0.22973 0.15314,0.43393 -0.10209,0.81682 -0.15314,1.488993 -0.15314,2.016523 v 2.73122 c 0,2.02502 -0.34034,3.03753 -1.02102,3.03753 0,0.0851 -0.0426,0.12769 -0.12769,0.12769 -1.37837,-1.05505 -2.34834,-2.15266 -2.9099,-3.29279 -0.30631,-0.11911 -0.68919,-0.40841 -1.14864,-0.86787 l 0.30629,-0.15316 c 1.36137,0.30631 2.13564,0.45947 2.32283,0.45947 0.5956,-0.20421 0.92743,-0.44244 0.99549,-0.71471 v -0.15316 c 0,-1.82082 0.14464,-3.760753 0.43393,-5.819813 h -0.12755 c -2.5015,1.54855 -3.9054,2.32282 -4.21171,2.32282 h -0.3063 v -0.12762 c 3.18217,-2.14414 4.77326,-3.3013 4.77326,-3.47147 v -1.58258 l 0.17867,-1.021016 -3.03752,1.021016 h -0.17869 c -0.17017,0 -0.25525,-0.0851 -0.25525,-0.25525 3.53953,-2.144142 5.505,-3.216213 5.89639,-3.216213 0,-0.170169 0.34034,-0.272272 1.02102,-0.306306 z m 29.303247,-2.297293 c 2.11011,0 3.7012,0.995493 4.77326,2.986482 v 0.561561 c 0,0.272271 -0.11911,0.408406 -0.35735,0.408406 -0.0851,0 -0.12756,-0.05105 -0.12756,-0.153151 -0.32332,0 -0.85936,1.233732 -1.6081,3.701192 -2.22923,3.42042 -4.3989,5.130623 -6.50901,5.130623 -1.004,0.51051 -1.65065,0.76577 -1.93994,0.76577 -1.36135,-0.27227 -2.04203,-0.66367 -2.04203,-1.174173 v -0.17868 c 0.52753,-0.71472 0.7913,-1.25075 0.7913,-1.60811 -0.30631,0 -0.67219,-1.17417 -1.09761,-3.52251 -1.3103,1.29329 -2.11009,2.27176 -2.39938,2.93543 l 0.3063,0.58708 v 0.61261 c 0,0.22123 -0.21271,0.47648 -0.63813,0.76577 h -0.7913 c -0.73173,-0.18719 -0.28365,-0.19819 -3.15953,-3.94193 l 0.21253,-2.761734 c 1.17418,1.106104 -0.0396,2.772744 1.03252,3.385354 0.85086,0 3.55655,-1.90591 8.1171,-5.717712 0.33236,-0.270394 0.56849,-0.520602 1.42943,-1.021019 2.02502,-1.174172 3.36085,-1.761259 4.0075,-1.761259 z m -0.85503,0.718834 c -0.72229,0.497826 -0.7824,0.319799 -1.39122,0.889272 -0.27617,0.187296 -0.36997,0.27677 -0.72754,0.608329 l -0.0637,0.182961 1.25075,2.14414 v 0.433933 c -1.17418,3.029021 -1.96548,4.798791 -2.37388,5.309301 v 0.15315 c 0.1021,0 0.26376,0.0766 0.48499,0.22973 1.41242,-0.37437 2.56956,-1.3018 3.47147,-2.78227 1.39538,-2.16116 2.09308,-4.118116 2.09308,-5.870866 0,-0.935934 -0.55349,-1.318926 -2.34027,-1.318926 z m -6.82814,5.611486 c 0.44245,0.66366 0.66367,1.11461 0.66367,1.35285 h 0.33183 c 0.18718,-1.20821 0.45095,-1.86336 0.79129,-1.96546 v 0.2042 l -0.30631,1.58258 0.30631,2.34835 h 0.45945 c 0.51051,0 1.04655,-2.16116 1.6081,-6.483476 l -0.33183,-0.229729 c -1.36135,0.969968 -2.53553,2.033529 -3.52251,3.190685 z m 25.8318,-11.741722 c 0.7998,0.935934 1.1997,1.650649 1.1997,2.144141 1.54855,-0.56156 2.12289,-0.750098 3.04499,-1.046312 l 0.70724,-0.102335 h 1.3018 c 0.95295,0 1.42944,0.382882 1.42944,1.148647 -1.07207,1.021019 -1.60811,1.557054 -1.60811,1.608104 h 0.48498 c 0.24431,0 0.35063,-0.03663 0.5208,-0.03663 0.40841,0 0.53426,-0.278183 0.90863,-0.09099 0.0681,0 0.27205,0.07642 0.52698,0.1124 1.10816,0.233685 1.36191,0.168381 1.77031,1.036247 v 0.587087 c -4.7137,3.573567 -7.70018,6.457943 -8.95944,8.653133 l 0.71471,-0.15315 h 1.17418 c 1.83784,0.6977 2.75675,1.8038 2.75675,3.31831 0,0.30631 0.034,0.45946 0.1021,0.45946 0,3.301303 -1.48899,5.505003 -4.46696,6.611103 h -0.58709 c -1.42943,-1.29329 -2.14414,-2.15265 -2.14414,-2.57808 l -0.58707,0.40841 c -0.20421,0 -0.30631,-0.0935 -0.30631,-0.28078 v -0.12769 c 0.22122,-1.51452 1.33583,-3.58207 3.34383,-6.202693 l 0.17869,0.28078 c 0,0.2042 -0.73173,1.64214 -2.1952,4.313803 -0.1021,0.52752 -0.15316,0.9104 -0.15316,1.14864 l 2.04205,1.14865 h 1.14864 c 1.73572,-1.17417 2.60359,-2.85885 2.60359,-5.054043 0,-0.15315 -0.10209,-0.67217 -0.3063,-1.55705 h -0.1021 c -0.62963,0.78278 -1.16567,1.74424 -1.6081,2.884383 v 0.15315 c 0,0.20421 0.034,0.39139 0.10209,0.56156 -0.35735,1.05505 -0.63812,1.58257 -0.84233,1.58257 -0.45945,0 -0.79128,-1.004 -0.99549,-3.011993 v -1.17418 h 0.4084 v 0.89339 c 0.5105,0 1.37837,-0.78278 2.6036,-2.34834 -0.39139,-0.56156 -0.87638,-0.84234 -1.45494,-0.84234 -1.66767,0 -2.91842,1.39539 -3.75225,4.186183 -0.52754,0.96996 -0.90191,1.49749 -1.12313,1.58257 -0.20421,0 -0.30631,-0.14464 -0.30631,-0.43393 0,-1.15715 1.25075,-3.709703 3.75225,-7.657643 0,-0.13613 0.43393,-0.95295 1.3018,-2.450443 l -0.58709,0.433934 h -0.12769 c -0.25525,0 -0.39138,-0.187187 -0.4084,-0.561561 0,-0.51051 0.57007,-1.81231 1.7102,-3.905399 h -0.17868 c -0.23824,0.408408 -1.76125,1.846344 -4.56906,4.313807 l 0.1021,0.740238 c 0,0.187187 -0.0937,0.280784 -0.28077,0.280784 h -0.40842 c -0.85085,-0.52753 -1.96546,-2.118619 -3.34383,-4.773269 l 0.30631,-0.153153 c 1.07206,1.089088 1.69318,1.676174 1.86336,1.761259 0.88489,-0.03403 2.90139,-1.046543 6.04954,-3.037533 1.19118,-0.221221 1.78677,-1.191189 1.78677,-2.909905 h -0.17867 c -1.83783,0.663663 -2.75675,1.437937 -2.75675,2.322819 l -0.68919,1.174173 h -0.30631 c -0.35735,0 -0.65515,-1.072071 -0.89339,-3.216211 0.11911,-0.374373 0.17868,-0.757255 0.17868,-1.148647 0,-0.06807 -0.0596,-0.357354 -0.17868,-0.867866 z m 3.62461,7.530018 c 1.05505,0 1.64214,0.09359 1.76127,0.28078 1.12311,-1.24224 1.69318,-2.399396 1.7102,-3.471466 h -0.12769 c -1.3954,0 -2.40791,0.910408 -3.03754,2.731226 -0.1021,0 -0.20419,0.153153 -0.3063,0.45946 z m 4.95195,3.726724 h 0.1021 c 0.68068,0 1.02102,0.33183 1.02102,0.99549 v 0.89339 c -0.23825,0.86787 -0.8083,1.97397 -1.71021,3.31831 2.75676,0.81682 4.44144,1.684693 5.05405,2.603613 v 0.12769 c -0.11911,0.27227 -1.26776,0.8083 -3.44594,1.6081 -0.27228,0 -1.1061,0.38288 -2.5015,1.14865 l -0.12769,-0.28078 c 2.21221,-1.54855 3.31831,-2.7057 3.31831,-3.47147 v -0.280843 l -1.02102,-0.15316 h -0.99549 c -0.35736,0 -0.7913,0.246753 -1.3018,0.740243 -0.20421,0 -0.30631,-0.15315 -0.30631,-0.45946 0,-0.833833 0.67217,-2.765263 2.01651,-5.794283 v -0.28078 h -0.10209 l -0.48499,0.28078 h -0.1021 v -0.12762 c 0.22122,-0.57858 0.41691,-0.86787 0.58709,-0.86787 z"
       id="text1-8"
       style="stroke-width:0.510508"
       aria-label="寰宇四象" />
  </g>
</svg>
